<?xml version="1.0" encoding="utf-8"?>
<!-- Generator: Adobe Illustrator 23.0.3, SVG Export Plug-In . SVG Version: 6.00 Build 0)  -->
<svg version="1.1" id="Layer_1" xmlns="http://www.w3.org/2000/svg" xmlns:xlink="http://www.w3.org/1999/xlink" x="0px" y="0px"
	 viewBox="0 0 38 37.98" style="enable-background:new 0 0 38 37.98;" xml:space="preserve">
<style type="text/css">
	.st0{fill:#585858;}
</style>
<path id="Unpacked" class="st0" d="M38,6.57c0-2.9-1.64-5.24-4.35-6.2C33.15,0.19,32.62,0.12,32.1,0H5.88
	C5.47,0.09,5.04,0.16,4.63,0.28C2.32,1.01,0.85,2.55,0.21,4.88C0.12,5.21,0.07,5.55,0,5.88V32.1c0.17,0.64,0.26,1.32,0.52,1.93
	c0.88,2.11,2.5,3.37,4.72,3.86c0.35,0.08,0.72,0.09,1.07,0.09c8.46,0,16.93,0,25.39,0c2.87,0,5.5-2.1,6.11-4.89
	c0.12-0.54,0.18-1.1,0.18-1.66C38,23.14,38,14.86,38,6.57z M32.02,9.83c-0.43-0.01-0.87-0.01-1.3,0.01
	c-0.64,0.02-0.9,0.29-0.91,0.93c-0.01,0.67,0,1.34,0,2.01c0,3.46,0,6.93,0,10.39c0,1.8-0.3,3.54-1.13,5.15
	c-1.01,1.97-2.54,3.41-4.56,4.32c-2.27,1.01-4.65,1.24-7.1,0.92c-2.06-0.27-3.94-0.97-5.55-2.31c-1.62-1.35-2.69-3.06-3.12-5.11
	C8.12,25.06,8,23.96,7.99,22.87c-0.04-3.92-0.02-7.84-0.02-11.77c0-0.15,0-0.3-0.01-0.45C7.92,10.1,7.71,9.87,7.15,9.84
	C6.71,9.82,6.26,9.82,5.81,9.83C5.55,9.84,5.43,9.76,5.43,9.48c0.01-1.23,0.01-2.46,0-3.69c0-0.25,0.1-0.33,0.33-0.32
	c1.76,0.01,3.52,0,5.29,0.04c1.11,0.03,1.83,0.7,2,1.79c0.06,0.37,0.08,0.74,0.08,1.11c0,0.65,0,1.29,0,1.94c0,0.64,0,1.28,0,1.92
	c0,1.16,0,2.32,0,3.48c0,2.42,0,4.84,0,7.26c0,1.16,0.18,2.28,0.76,3.3c0.7,1.24,1.78,1.99,3.13,2.34c1.36,0.36,2.73,0.35,4.07-0.1
	c2.04-0.68,3.14-2.16,3.46-4.25c0.07-0.49,0.09-0.99,0.09-1.48c0.01-4.77,0-9.53,0.01-14.3c0-0.42,0.02-0.85,0.1-1.26
	c0.18-1.04,0.83-1.7,1.89-1.73c1.81-0.07,3.62-0.04,5.43-0.04c0.09,0,0.25,0.16,0.26,0.25c0.02,1.27,0.01,2.53,0.01,3.8
	C32.35,9.77,32.24,9.83,32.02,9.83z"/>
</svg>
